<svg xmlns="http://www.w3.org/2000/svg" viewBox="0 0 512 512">
  <rect width="512" height="512" rx="80" fill="#0a0a16"/>
  <rect x="28" y="28" width="456" height="456" rx="64" fill="none" stroke="#c8a96e" stroke-width="6" opacity="0.35"/>
  <!-- Grid -->
  <line x1="80" y1="80" x2="432" y2="80" stroke="#c8a96e" stroke-width="1.5" opacity="0.18"/>
  <line x1="80" y1="166" x2="432" y2="166" stroke="#c8a96e" stroke-width="1.5" opacity="0.18"/>
  <line x1="80" y1="252" x2="432" y2="252" stroke="#c8a96e" stroke-width="1.5" opacity="0.18"/>
  <line x1="80" y1="338" x2="432" y2="338" stroke="#c8a96e" stroke-width="1.5" opacity="0.18"/>
  <line x1="80" y1="424" x2="432" y2="424" stroke="#c8a96e" stroke-width="1.5" opacity="0.18"/>
  <line x1="80" y1="80" x2="80" y2="424" stroke="#c8a96e" stroke-width="1.5" opacity="0.18"/>
  <line x1="166" y1="80" x2="166" y2="424" stroke="#c8a96e" stroke-width="1.5" opacity="0.18"/>
  <line x1="252" y1="80" x2="252" y2="424" stroke="#c8a96e" stroke-width="1.5" opacity="0.18"/>
  <line x1="338" y1="80" x2="338" y2="424" stroke="#c8a96e" stroke-width="1.5" opacity="0.18"/>
  <line x1="424" y1="80" x2="424" y2="424" stroke="#c8a96e" stroke-width="1.5" opacity="0.18"/>
  <!-- Buildings -->
  <rect x="96" y="176" width="100" height="76" rx="6" fill="#8B6330" opacity="0.92"/>
  <rect x="214" y="140" width="148" height="120" rx="6" fill="#2A4A7A" opacity="0.92"/>
  <rect x="262" y="278" width="76" height="100" rx="6" fill="#2E6040" opacity="0.92"/>
  <rect x="104" y="284" width="120" height="88" rx="6" fill="#7A3A6A" opacity="0.92"/>
  <!-- Anno A -->
  <text x="256" y="290" font-family="Georgia, serif" font-size="160" font-weight="bold"
        text-anchor="middle" fill="#c8a96e" opacity="0.10">A</text>
  <!-- App name -->
  <text x="256" y="478" font-family="'Segoe UI', system-ui, sans-serif" font-size="28"
        text-anchor="middle" fill="#c8a96e" opacity="0.7" letter-spacing="4">ANNO PLANNER</text>
</svg>
